<svg xmlns="http://www.w3.org/2000/svg" width="600" height="600" viewBox="0 0 600 600">
  <rect width="100%" height="100%" fill="none"/>
  <circle cx="300" cy="200" r="160" fill="#E6FFFA"/>
  <circle cx="300" cy="200" r="90" fill="#FFDAB9"/>
  <path d="M225 170 C230 120 370 120 375 170 C375 170 360 200 300 200 C240 200 225 170 225 170 Z" fill="#1F2937"/>
  <circle cx="275" cy="200" r="8" fill="#0B3A2E"/>
  <circle cx="325" cy="200" r="8" fill="#0B3A2E"/>
  <path d="M265 230 Q300 260 335 230" stroke="#7A3E00" stroke-width="6" fill="none" stroke-linecap="round" stroke-linejoin="round"/>
  <rect x="220" y="135" rx="18" ry="18" width="160" height="36" fill="#F6C84C"/>
  <path d="M220 150 Q300 120 380 150" fill="#F6C84C"/>
  <rect x="180" y="320" width="240" height="180" rx="24" fill="#2F855A"/>
  <rect x="240" y="320" width="120" height="180" rx="24" fill="#37966F"/>
</svg>
