<svg xmlns="http://www.w3.org/2000/svg" width="600" height="600" viewBox="0 0 600 600">
  <rect width="100%" height="100%" fill="none"/>
  <circle cx="300" cy="200" r="160" fill="#F0FFF4"/>
  <circle cx="300" cy="200" r="90" fill="#FFEFD5"/>
  <path d="M210 150 C200 220 230 280 300 280 C370 280 400 220 390 150 C370 140 230 140 210 150 Z" fill="#111827"/>
  <rect x="250" y="190" width="40" height="26" rx="8" fill="#FFFFFF" stroke="#0B3940" stroke-width="6"/>
  <rect x="310" y="190" width="40" height="26" rx="8" fill="#FFFFFF" stroke="#0B3940" stroke-width="6"/>
  <line x1="290" y1="203" x2="310" y2="203" stroke="#0B3940" stroke-width="6" stroke-linecap="round"/>
  <circle cx="270" cy="203" r="4" fill="#0B3940"/>
  <circle cx="330" cy="203" r="4" fill="#0B3940"/>
  <path d="M280 240 Q300 260 320 240" stroke="#6B3E2D" stroke-width="5" fill="none" stroke-linecap="round"/>
  <rect x="180" y="320" width="240" height="180" rx="24" fill="#2B6CB0"/>
  <path d="M240 320 Q300 360 360 320 L360 420 Q300 460 240 420 Z" fill="#2F855A" opacity="0.12"/>
  <path d="M240 320 Q300 300 360 320 L360 360 Q300 340 240 360 Z" fill="#2F855A"/>
</svg>
