<svg xmlns="http://www.w3.org/2000/svg" viewBox="0 0 120 120" width="120" height="120">
  <rect width="100%" height="100%" fill="none"/>
  <circle cx="24" cy="24" r="10" fill="#FFD166"/>
  <g stroke="#FFD166" stroke-width="2">
    <line x1="24" y1="6" x2="24" y2="0"/>
    <line x1="24" y1="42" x2="24" y2="48"/>
    <line x1="6" y1="24" x2="0" y2="24"/>
    <line x1="42" y1="24" x2="48" y2="24"/>
    <line x1="10" y1="10" x2="6" y2="6"/>
    <line x1="38" y1="10" x2="42" y2="6"/>
    <line x1="10" y1="38" x2="6" y2="42"/>
    <line x1="38" y1="38" x2="42" y2="42"/>
  </g>
  <rect x="20" y="60" width="80" height="20" rx="3" fill="#0EA5A4" stroke="#075985" stroke-width="2"/>
  <g stroke="#075985" stroke-width="1.5">
    <line x1="30" y1="60" x2="30" y2="80"/>
    <line x1="40" y1="60" x2="40" y2="80"/>
    <line x1="50" y1="60" x2="50" y2="80"/>
    <line x1="60" y1="60" x2="60" y2="80"/>
    <line x1="70" y1="60" x2="70" y2="80"/>
    <line x1="80" y1="60" x2="80" y2="80"/>
  </g>
</svg>
